<svg width="8" height="12" viewBox="0 0 8 12" fill="none" xmlns="http://www.w3.org/2000/svg">
<path d="M2.45902 3.94112C2.45902 3.34702 2.91602 2.97489 3.53624 2.90307V4.99876C3.47096 4.9857 3.4122 4.96612 3.35344 4.94653C2.75934 4.75067 2.45902 4.41119 2.45902 3.94112ZM5.72333 8.01499C5.72333 8.65479 5.23369 9.07915 4.54165 9.13791V6.88553C4.58735 6.89859 4.63305 6.91165 4.67222 6.91818C5.40343 7.12056 5.72333 7.47964 5.72333 8.01499ZM4.55471 11.3772L4.54818 10.5481C6.33702 10.3783 7.473 9.39252 7.473 7.83871C7.473 6.25879 6.40884 5.59287 5.09658 5.31214L4.54165 5.19462V2.91613C5.23369 3.02712 5.61887 3.54941 5.63846 4.0717H7.30979C7.28367 2.71374 6.21951 1.68222 4.56777 1.50595V0.657227H3.51013V1.49942C1.9302 1.64305 0.689764 2.51136 0.689764 4.07823C0.689764 5.56022 1.76046 6.31754 2.97478 6.58522L3.53624 6.70926V9.13791C2.70058 9.02692 2.26316 8.52422 2.23052 7.92358H0.52002C0.533077 9.13138 1.34263 10.4045 3.5036 10.5611L3.49707 11.3772H4.55471Z" fill="#3B5162"/>
</svg>
