<svg width="22" height="14" viewBox="0 0 22 14" fill="none" xmlns="http://www.w3.org/2000/svg">
<path fill-rule="evenodd" clip-rule="evenodd" d="M0.25 3C0.25 1.48122 1.48122 0.25 3 0.25H19C20.5188 0.25 21.75 1.48122 21.75 3V11C21.75 12.5188 20.5188 13.75 19 13.75H17C16.5858 13.75 16.25 13.4142 16.25 13C16.25 12.5858 16.5858 12.25 17 12.25H19C19.6904 12.25 20.25 11.6904 20.25 11V3C20.25 2.30964 19.6904 1.75 19 1.75H3C2.30964 1.75 1.75 2.30964 1.75 3V11C1.75 11.6904 2.30964 12.25 3 12.25H5C5.41421 12.25 5.75 12.5858 5.75 13C5.75 13.4142 5.41421 13.75 5 13.75H3C1.48122 13.75 0.25 12.5188 0.25 11V3Z" fill="#3B5162"/>
</svg>
